<svg width="28" height="30" viewBox="0 0 28 30" fill="none" xmlns="http://www.w3.org/2000/svg">
<path d="M19.3338 11.0001V7.00008C19.3338 4.05456 16.946 1.66675 14.0005 1.66675C11.0549 1.66675 8.66712 4.05456 8.66712 7.00008V11.0001M2.78979 12.8027L1.98979 21.336C1.76233 23.7623 1.6486 24.9754 2.05119 25.9124C2.40485 26.7356 3.02461 27.4162 3.81114 27.8451C4.70649 28.3334 5.92494 28.3334 8.36185 28.3334H19.6391C22.076 28.3334 23.2944 28.3334 24.1898 27.8451C24.9763 27.4162 25.5961 26.7356 25.9497 25.9124C26.3523 24.9754 26.2386 23.7623 26.0111 21.336L25.2111 12.8027C25.019 10.7539 24.923 9.72946 24.4622 8.95497C24.0564 8.27286 23.4569 7.7269 22.7399 7.38654C21.9258 7.00008 20.8969 7.00008 18.8391 7.00008L9.16185 7.00008C7.10404 7.00008 6.07513 7.00008 5.26101 7.38654C4.54401 7.72689 3.94446 8.27286 3.53867 8.95496C3.07791 9.72946 2.98187 10.7539 2.78979 12.8027Z" stroke="black" stroke-width="3" stroke-linecap="round" stroke-linejoin="round"/>
</svg>
